<svg width="20" height="20" viewBox="0 0 20 20" fill="none" xmlns="http://www.w3.org/2000/svg">
<g id="dataflow-03" clip-path="url(#clip0_17048_534)">
<path id="Icon" d="M9.16675 3.74999H15.2501C16.1835 3.74999 16.6502 3.74999 17.0067 3.93165C17.3203 4.09143 17.5753 4.3464 17.7351 4.66001C17.9167 5.01653 17.9167 5.48324 17.9167 6.41666V7.49999C17.9167 8.27656 17.9167 8.66484 17.7899 8.97113C17.6207 9.37951 17.2963 9.70397 16.8879 9.87312C16.5816 9.99999 16.1933 9.99999 15.4167 9.99999M10.8334 16.25H4.75008C3.81666 16.25 3.34995 16.25 2.99343 16.0683C2.67983 15.9085 2.42486 15.6536 2.26507 15.34C2.08341 14.9835 2.08341 14.5167 2.08341 13.5833V12.5C2.08341 11.7234 2.08341 11.3351 2.21028 11.0289C2.37944 10.6205 2.7039 10.296 3.11228 10.1269C3.41856 9.99999 3.80685 9.99999 4.58341 9.99999M8.58342 12.0833H11.4167C11.6501 12.0833 11.7668 12.0833 11.8559 12.0379C11.9343 11.998 11.9981 11.9342 12.038 11.8558C12.0834 11.7667 12.0834 11.65 12.0834 11.4167V8.58332C12.0834 8.34997 12.0834 8.23329 12.038 8.14416C11.9981 8.06576 11.9343 8.00202 11.8559 7.96207C11.7668 7.91666 11.6501 7.91666 11.4167 7.91666H8.58342C8.35006 7.91666 8.23338 7.91666 8.14425 7.96207C8.06585 8.00202 8.00211 8.06576 7.96216 8.14416C7.91675 8.23329 7.91675 8.34997 7.91675 8.58332V11.4167C7.91675 11.65 7.91675 11.7667 7.96216 11.8558C8.00211 11.9342 8.06585 11.998 8.14425 12.0379C8.23338 12.0833 8.35006 12.0833 8.58342 12.0833ZM14.8334 18.3333H17.6667C17.9001 18.3333 18.0168 18.3333 18.1059 18.2879C18.1843 18.248 18.2481 18.1842 18.288 18.1058C18.3334 18.0167 18.3334 17.9 18.3334 17.6667V14.8333C18.3334 14.6 18.3334 14.4833 18.288 14.3942C18.2481 14.3158 18.1843 14.252 18.1059 14.2121C18.0168 14.1667 17.9001 14.1667 17.6667 14.1667H14.8334C14.6001 14.1667 14.4834 14.1667 14.3943 14.2121C14.3159 14.252 14.2521 14.3158 14.2122 14.3942C14.1667 14.4833 14.1667 14.6 14.1667 14.8333V17.6667C14.1667 17.9 14.1667 18.0167 14.2122 18.1058C14.2521 18.1842 14.3159 18.248 14.3943 18.2879C14.4834 18.3333 14.6001 18.3333 14.8334 18.3333ZM2.33341 5.83332H5.16675C5.4001 5.83332 5.51678 5.83332 5.60591 5.78791C5.68431 5.74796 5.74805 5.68422 5.788 5.60582C5.83341 5.51669 5.83341 5.40001 5.83341 5.16666V2.33332C5.83341 2.09997 5.83341 1.98329 5.788 1.89416C5.74805 1.81576 5.68431 1.75202 5.60591 1.71207C5.51678 1.66666 5.4001 1.66666 5.16675 1.66666H2.33341C2.10006 1.66666 1.98338 1.66666 1.89425 1.71207C1.81585 1.75202 1.75211 1.81576 1.71216 1.89416C1.66675 1.98329 1.66675 2.09997 1.66675 2.33332V5.16666C1.66675 5.40001 1.66675 5.51669 1.71216 5.60582C1.75211 5.68422 1.81585 5.74796 1.89425 5.78791C1.98338 5.83332 2.10006 5.83332 2.33341 5.83332Z" stroke="#7D48DF" stroke-width="1.66667" stroke-linecap="round" stroke-linejoin="round"/>
</g>
<defs>
<clipPath id="clip0_17048_534">
<rect width="20" height="20" fill="white"/>
</clipPath>
</defs>
</svg>
