<svg width="20" height="20" viewBox="0 0 20 20" fill="none" xmlns="http://www.w3.org/2000/svg">
<g id="horizontal-bar-chart-01">
<path id="Icon" d="M14.1667 7.91669V5.08335C14.1667 4.61664 14.1667 4.38329 14.0758 4.20503C13.9959 4.04823 13.8685 3.92074 13.7117 3.84085C13.5334 3.75002 13.3 3.75002 12.8333 3.75002H2.5M10.8333 12.0834V14.9167C10.8333 15.3834 10.8333 15.6168 10.7425 15.795C10.6626 15.9518 10.5351 16.0793 10.3783 16.1592C10.2001 16.25 9.96671 16.25 9.5 16.25H2.5M2.5 1.66669L2.5 18.3334M2.5 12.0834L16.1667 12.0834C16.6334 12.0834 16.8667 12.0834 17.045 11.9925C17.2018 11.9126 17.3293 11.7851 17.4092 11.6283C17.5 11.4501 17.5 11.2167 17.5 10.75V9.25002C17.5 8.78331 17.5 8.54996 17.4092 8.3717C17.3293 8.21489 17.2018 8.08741 17.045 8.00752C16.8667 7.91669 16.6334 7.91669 16.1667 7.91669L2.5 7.91669L2.5 12.0834Z" stroke="#717680" stroke-width="1.66667" stroke-linecap="round" stroke-linejoin="round"/>
</g>
</svg>
