<svg width="20" height="20" viewBox="0 0 20 20" fill="none" xmlns="http://www.w3.org/2000/svg">
<g id="rocket-02">
<path id="Icon" d="M9.99992 12.5L7.49992 9.99998M9.99992 12.5C11.164 12.0573 12.2807 11.4989 13.3333 10.8333M9.99992 12.5V16.6666C9.99992 16.6666 12.5249 16.2083 13.3333 15C14.2333 13.65 13.3333 10.8333 13.3333 10.8333M7.49992 9.99998C7.94337 8.84951 8.50175 7.7467 9.16659 6.70832C10.1376 5.1558 11.4896 3.87752 13.0941 2.99506C14.6986 2.11259 16.5021 1.65529 18.3333 1.66665C18.3333 3.93332 17.6833 7.91665 13.3333 10.8333M7.49992 9.99998H3.33325C3.33325 9.99998 3.79159 7.47498 4.99992 6.66665C6.34992 5.76665 9.16659 6.66665 9.16659 6.66665M3.74992 13.75C2.49992 14.8 2.08325 17.9166 2.08325 17.9166C2.08325 17.9166 5.19992 17.5 6.24992 16.25C6.84159 15.55 6.83325 14.475 6.17492 13.825C5.85101 13.5158 5.42433 13.3372 4.97677 13.3233C4.52922 13.3095 4.09232 13.4614 3.74992 13.75Z" stroke="#717680" stroke-width="1.66667" stroke-linecap="round" stroke-linejoin="round"/>
</g>
</svg>
